<svg id="Layer_1" data-name="Layer 1" xmlns="http://www.w3.org/2000/svg" viewBox="0 0 498.98 749.66"><defs><style>.cls-1{fill:#fff;}.cls-2{fill:#fc1921;}.cls-3{fill:#fec23b;}.cls-4{fill:#fee2c4;}</style></defs><path d="M328.16,114.21c15.5-12.85,24.57-28.34,28-46.48,3.4-17.77-.37-33.26-11-45.73C333.46,8,315.31.84,290.75.08c-20.78-.76-38.92,3.78-54,14a75.74,75.74,0,0,0-29.1,35.15c-5.67,13.6-7.18,27.21-4.15,40.81,2.64,14,9.44,24.57,20.4,31.37L213.28,121q-8.5-9.08-23.81,2.27l-24.56,4.91c1.13-5.29-.76-9.45-5.67-11.71-5.29-2.65-11-1.14-17,4.15l-15.5,18.9c-2.27,2.27-11,9.82-25.32,21.92-11.34,9.82-14.74,20.4-10.58,31.36-5.67-1.51-13.23-1.13-21.92,2.27a75.93,75.93,0,0,0-25.32,14c-9.07,7.56-15.49,15.5-19.27,24.57-4.16,10.58-5.29,20.78-2.27,31.74L6.94,284.64c-5.67,9.07-6,19.66-1.89,31.75,3,7.18,9.83,15.87,21.17,25.32C44.36,357.58,58,370.05,66.65,379.12c-.37,6.05.38,10.21,2.27,12.85L52.67,420.69C47,430.9,44,438.07,43.6,441.85c0,7.18,1.89,13.23,6.8,17.39,5.29,5.29,13.23,7.56,23.81,6.05a166.84,166.84,0,0,0,19.27,54.79c-3,4.16-4.53,9.45-4.53,15.5-6.43,8.69-15.87,18.89-28.34,30.23L30.75,594.15c-10.58,11-18.52,21.54-23.43,31.75C1.65,638-.62,651.59.14,665.58c1.51,21.91,14.36,38.54,38.17,49.88a107.58,107.58,0,0,0,29.48,9.45L92,726.8c31.37,18.89,63.49,26.07,96,21.54,29.1-4.16,54.42-17,76.34-37.79,21.16-20.41,34-43.08,38.92-68.78,5.67-27.21,0-51-15.49-71.81l26.83-9.82c20,1.13,36.28,0,48.75-3,23.81-6.42,37.41-20,41.19-40.8l51.4,3c23.8,1.89,37,6.43,38.54,14,1.52,5.67-1.51,10.58-7.93,15.49-5.29,3.41-13.6,7.19-25.32,11.34l-31.37,11c-11.71,4.16-20.4,8.69-26.07,12.85-30.61,23.43-43.46,49.88-38.17,79.74-.76-31.37,12.85-57.07,40.43-77.1,5.29-3.77,14.37-8.31,26.45-12.85l31.75-11c12.09-4.15,20.79-8.68,26.08-12.46,6.8-5.3,9.82-11,8.31-17-1.89-10.58-14.74-17-38.17-19.27l-29.85-2.27c-11.34-.76-20-1.89-26.08-3.78-.75-20.79-14.36-45.35-40.81-74.07l-30.61-30.23c-11-10.21-17.39-17.39-20.41-21.54,17.38-17.39,24.94-34.77,22.68-52.53a81,81,0,0,0-7.19-24.19l-12.08-25.7,4.15-12.85c8.69,14.74,20.41,25.7,35.9,32.88a75.65,75.65,0,0,0,44.21,7.56c15.5-2.27,28-8.69,37.79-19.27,11-11.72,16.63-27.21,17.39-46.49q.57-24.37-14.74-45.35c-10.2-13.6-22.67-23.43-37.79-29.1-15.87-6.42-31-6.42-45.35-.75-15.87,6.42-28.34,19.65-37.41,40.06q-2.84-17-20.41-39.68c-11.34-14.36-22.3-24.19-32.5-29.48C291.13,136.13,311.54,128.19,328.16,114.21Zm-53.28,141c6.8-1.51,14.36,1.51,22.68,10.2,9.44,9.45,17.75,22.3,24.56,38.17,7.56,17.38,10.2,31.37,7.93,42.71-2.64,13.6-14.36,28-34.76,42.7-19.66,14.36-38.55,22.29-56.31,24.18a136.32,136.32,0,0,0,26.45-14.74c7.56-5.29,12.09-9.82,12.85-13.6L254.1,401q-15.32,9.63-27.21,13.61l-15.12-.38c18.52-9.07,29.1-17.39,32.5-25.7L208,413.89a69.6,69.6,0,0,1-31.37-6.43c-12.47-5.29-18.89-11.33-19.27-18.51-.76-9.07,8.69-18.9,27.21-29.48,6.42-3.78,14.36-7.56,23.81-12.09L228,338.69l1.51,5.67a9.14,9.14,0,0,0,3,4.15l-2.26-25.32c-1.51-11.71-1.14-20.78.38-27.21,1.88-8.31,5.66-14,11.33-16.63,6.43-3,12.1,0,16.63,8.32,4.54,9.82,8.69,25.7,13.6,47.24,3,11.34.76,19.65-7.17,25.69a18.34,18.34,0,0,0,9.06-7.93,22.37,22.37,0,0,0,2.27-12.09c-3.4-26.46-7.93-45.73-15.11-58.2-5.29-7.18-11.72-9.45-19.66-7.18-.75-3.4,0-7.56,2.65-12.47,2.64-5.67,6-8.7,10.58-9.07,12.1-1.52,23.81,8.69,35.9,30.61a153.88,153.88,0,0,1,11.72,28.34c3,10.2,4.53,18.52,4.53,25.32.38-1.13.76-4.54.76-9.83a135.25,135.25,0,0,0-2.65-20.78C300.2,286.16,290,268.77,274.88,255.17Zm1.89,172.33L270,437.7l15.87-34a138.74,138.74,0,0,1-6.43,18.89c2.65.76,7.56-5.29,15.12-17.76-1.13,3.78-3.4,7.94-7.18,12.85C283.19,423.34,279.79,426.74,276.77,427.5Zm1.89,16.24c-5.29,0-9.07,2.65-11.34,8.32-3,5.67-3,12.85-.75,20.79l-20-4.16c5.29-4.16,12.47-13.23,20.78-26.84a82.21,82.21,0,0,0,34-12.46,70.41,70.41,0,0,0,24.56-24.95c26.83,23.06,46.48,44.22,58.57,64.25,11.72,18.51,16.25,34.39,14.36,48-1.89,13.23-9.44,23.05-22.67,29.86-13.23,7.18-30.61,10.2-52.15,9.82l9.45-3.78c-3.78-1.13-12.1.38-24.19,4.16a244.77,244.77,0,0,0-25.7,9.82A18,18,0,0,0,279.79,556c4.16-29.48-3.78-56.31-24.18-80.12a651.34,651.34,0,0,1,63.11,19.65l-11-7.56a52,52,0,0,1,18.14,2.27c-1.14-1.89-4.16-3-8.32-4.16l-11.33-1.89c-3-13.6-6.8-24.18-12.47-31.37C289.24,446.77,284,443.37,278.66,443.74ZM270,455.46c1.13-5.29,3.77-7.94,7.93-8.69,3.78-.38,7.94,2.26,12.1,7.93,5.29,6.43,9.45,16.26,12.85,29.86l-1.51.38-15.12-5.67a135.48,135.48,0,0,0-15.12-4.91C268.84,467.55,268.46,461.13,270,455.46Zm-12.09,88.81c-1.52-3.4-3-9.07-5.3-17.39l24.19,10.21a46.83,46.83,0,0,1-.38,14.74C273.74,548.43,267.32,546.16,257.88,544.27Zm5.29,14.36-3.78-9.45c9.07,1.51,14.73,5.29,17.38,10.58s2.27,11-.76,17.39a35.61,35.61,0,0,1-16.62,14.74,50.28,50.28,0,0,1-28.35,4.9c-18.52-1.5-31.36-7.93-38.17-19.27a20,20,0,0,1-3.4-14.36,22.77,22.77,0,0,1,8.32-13.22l11,18.51c9.82,7.18,20,10.21,31.74,8.7S259.77,569.59,263.17,558.63ZM261.28,596c10.58-4.91,18.13-13.6,22.29-24.94,14,18.9,19.28,41.57,14.36,67.27-4.53,24.56-16.25,46.48-35.52,66.13Q231.8,735.12,191,741.91c-31,5.3-62-.75-92.58-17.75a63.38,63.38,0,0,1-22.68-20.79,57.55,57.55,0,0,1-10.2-28.72c-2.27-27.21,10.58-50.27,39.3-69.16,7.18-4.16,21.54-11,43.46-20.41,20-8.31,32.12-14.36,36.28-17.76.76,8.69,5.29,16.25,14.36,22.68a59.41,59.41,0,0,0,29.86,11C240.49,602.46,251.45,601,261.28,596ZM164.53,132.73v-2.65l.76.38C165.29,132,164.91,132.73,164.53,132.73Zm34,9.07-.75.37.37-3Zm21.92,7.55c1.51,16.63,3.4,29.48,5.29,38.17-3-7.55-5.29-19.27-6.8-35.52-1.13-15.49-3-24.94-5.29-28.72C217.06,128.57,219.71,137.26,220.46,149.35ZM79.88,266.88l3.78,11-11.34.76C75.34,275.2,77.61,271,79.88,266.88ZM211,432.79a59.5,59.5,0,0,1-28-1.89c-9.45-3-17-7.56-22.3-13.61-6-6.8-7.56-13.6-4.91-20.79,6,9.45,17.76,15.88,35.14,19.66l41.2,1.89C227.64,426,220.46,430.52,211,432.79Zm13.23,20c-3.78-8.69-4.91-15.11-3.4-19.64Zm-86.16-65.37h6.42a28.37,28.37,0,0,1-13.6,17c-7.18,4.54-14.74,6.43-23.43,6.8-9.45,0-17-1.89-23.43-6.42-7.56-4.91-11.72-12.1-13.23-21.54,11.34,8.32,21.92,13.22,31.74,15.11C116.91,401.42,129,397.64,138.08,387.44Zm14.74,23.05,2.64,4.91c.38,3.4,1.89,8.69,4.54,15.5l6.42,15.87c-21.16-6.43-34.39-8.32-39.68-5.29l-4.54-2.65Q143.19,421.27,152.82,410.49ZM122.58,412l1.14-.38c-7.18,11-14,18.9-20.79,23.43Zm-4.91,30.23A106.69,106.69,0,0,1,98.4,457c-9.07,5.29-15.5,7.56-20,7.56a95.51,95.51,0,0,0,20.78-10.2Zm25.32,3,26.83,7.19a158.55,158.55,0,0,0,15.12,23.43,83.71,83.71,0,0,0,1.51,38.92c-6.8-6.42-14.36-18.52-23-37C154.71,460,147.9,449,143,445.25Zm-1.51,55.94a22.67,22.67,0,0,1,15.87,7.56A24.83,24.83,0,0,1,164.53,525,31.52,31.52,0,0,1,160,544.65c-3.78,7.18-10.21,13.22-18.52,17.76-7.94,4.53-15.5,6-22.68,4.91-6.42-1.13-11.71-4.54-16.62-9.82a33.2,33.2,0,0,1-8.32-16.63c-1.51-6-.75-11.72,1.89-15.88a55.89,55.89,0,0,0,12.85,16.63c9.07,4.54,18.52,4.16,28.72-1.13,10.21-5.67,14.74-12.47,14.36-20.79ZM164.53,511q-3.41-5.67-6.8-7.93c5.29-.38,11,1.13,17.38,3.4l12.85,14,3,8.69c-3,0-8.69-1.89-16.25-4.91a15.56,15.56,0,0,0-5.67-3.4A36.51,36.51,0,0,0,164.53,511Zm-6.8,43.84c7.56-9.07,11.71-18.52,11.71-28.72,10.21,10.2,16.63,20,19.28,29.86l-2.27,5.28c-7.18,4.92-21.54,12.1-43.84,21.55L102.55,600.2c-22.29-4.53-40-2.64-53.66,4.91a172.1,172.1,0,0,1,50.26-2.27,102.54,102.54,0,0,0-25.32,22.3A83.74,83.74,0,0,0,59.47,655C53.8,679.56,62.12,701.48,84,720.75l-15.88-1.51A106.39,106.39,0,0,1,44,711.68c-21.92-10.2-34.39-24.56-37.41-44.21-2.27-12.1-.38-24.19,4.53-36.28,4.53-9.07,12.09-19.28,22.3-30.62l29.1-29.09c11.71-11.72,20.78-21.92,26.83-30.61,2.64,12.85,9.07,21.54,18.51,26.83q12.48,6.79,27.21,2.26C143,568.08,150.55,562.78,157.73,554.85Zm74.82-72.56a41.61,41.61,0,0,1-15.49,5.29c-13.6,2.65-23.05-.38-28.34-8.31,6,6.42,15.11,8.69,26.83,7.18A41.08,41.08,0,0,0,242,473.6C240.49,476.62,237.09,479.64,232.55,482.29Zm-35.9,64.62-4.91,4.16a98.4,98.4,0,0,0-11-20.78l11.34,3.77Zm51.4-29.1a83,83,0,0,1-4.16-21.16C246.16,502.32,247.29,509.5,248.05,517.81Zm-123.58-52.9c6.05,12.47,10.58,22.29,12.85,30.23A123.5,123.5,0,0,1,124.47,464.91ZM102.55,182.23l22.68-17.38a114.8,114.8,0,0,0,20.41-20l-1.51,11.71c-.38,6.81.75,10.21,3,11.34,1.51.38,4.53-.38,8.31-3l13.23-8.32c12.85-8.69,23.05-12.84,29.85-12.47a260.93,260.93,0,0,0,15.12,76.34c2.64,16.25-.76,36.28-11,59.71a360.83,360.83,0,0,1-20,38.17c18.9-5.67,32.5-6.8,40.81-3.78l3.41,20.41-44.22,20.4C166.42,364,157,373.45,154,382.52c-17.38,2.27-37-2.26-59.33-13.6-18.9-9.45-32.12-19.27-40.06-29.1a28.5,28.5,0,0,0,16.63,1.51A17.58,17.58,0,0,0,82.9,333c6-11,3.4-28-8.31-51,13.6-1.13,28,5.67,42.32,20.79.38-2.27-1.51-5.67-5.66-9.45-5.67-6-11.34-9.83-16.25-11.72l-7.56-3.4A102.22,102.22,0,0,1,84,228C86.68,210.57,92.73,195.46,102.55,182.23Zm83.52-55.93-20,18.52C172.09,135.75,178.89,129.7,186.07,126.3ZM62.5,228c6.42-1.89,11.71-.38,15.49,4.53-.76,5.67-.38,15.12.38,28a60.48,60.48,0,0,1-8.32,14.74Q59.85,261,46.25,261.59q-13.05,0-20.41,11.34c-5.67,8.31-7.18,17.38-4.16,28Q26.23,319.61,46.62,336c3.41,7.94,12.48,17,28,28,18.89,13.22,38.92,21.16,60.09,23.43-4.16,3.78-9.45,6-15.88,7.17l-18.13-1.13A66.8,66.8,0,0,1,76.1,380.63L33.78,342.84c-7.94-7.18-14.74-14-19.28-20-3.78-4.53-6-10.2-7.18-17-1.13-7.18,0-13.23,3-17.76L50.78,235.9C53.05,232.12,57.21,229.47,62.5,228Zm25.69-31a95.38,95.38,0,0,0-9.44,29.86c-9.83-7.18-20-5.29-31.37,5.66l-21.54,28c-2.27-6.8-1.89-14.36,1.51-22.68,2.65-7.55,7.94-14.36,15.12-21.16,6.8-6.42,14-11.71,22.29-15.11C73.08,197.73,81,196.21,88.19,197Z"/><path class="cls-1" d="M297.56,265.37c-8.32-8.69-15.88-11.71-22.68-10.2,15.12,13.6,25.32,31,30.23,52.15a135.25,135.25,0,0,1,2.65,20.78c0,5.29-.38,8.7-.76,9.83,0-6.8-1.51-15.12-4.53-25.32a153.88,153.88,0,0,0-11.72-28.34c-12.09-21.92-23.8-32.13-35.9-30.61-4.53.37-7.94,3.4-10.58,9.07-2.65,4.91-3.4,9.07-2.65,12.47,7.94-2.27,14.37,0,19.66,7.18,7.18,12.47,11.71,31.74,15.11,58.2a22.37,22.37,0,0,1-2.27,12.09,18.34,18.34,0,0,1-9.06,7.93c7.93-6,10.2-14.35,7.17-25.69-4.91-21.54-9.06-37.42-13.6-47.24-4.53-8.32-10.2-11.34-16.63-8.32-5.67,2.65-9.45,8.32-11.33,16.63-1.52,6.43-1.89,15.5-.38,27.21l2.26,25.32a9.14,9.14,0,0,1-3-4.15L228,338.69l-19.65,8.69c-9.45,4.53-17.39,8.31-23.81,12.09-18.52,10.58-28,20.41-27.21,29.48.38,7.18,6.8,13.22,19.27,18.51A69.6,69.6,0,0,0,208,413.89l36.28-25.32c-3.4,8.31-14,16.63-32.5,25.7l15.12.38q11.9-4,27.21-13.61l24.18-16.25c-.76,3.78-5.29,8.31-12.85,13.6A136.32,136.32,0,0,1,239,413.13c17.76-1.89,36.65-9.82,56.31-24.18,20.4-14.74,32.12-29.1,34.76-42.7,2.27-11.34-.37-25.33-7.93-42.71C315.31,287.67,307,274.82,297.56,265.37Z"/><path class="cls-1" d="M270,437.7l6.8-10.2c3-.76,6.42-4.16,10.58-9.83,3.78-4.91,6-9.07,7.18-12.85-7.56,12.47-12.47,18.52-15.12,17.76a138.74,138.74,0,0,0,6.43-18.89Z"/><path class="cls-2" d="M267.32,452.06c2.27-5.67,6.05-8.32,11.34-8.32,5.29-.37,10.58,3,15.12,9.07,5.67,7.19,9.44,17.77,12.47,31.37l11.33,1.89c4.16,1.13,7.18,2.27,8.32,4.16A52,52,0,0,0,307.76,488l11,7.56a651.34,651.34,0,0,0-63.11-19.65C276,499.68,284,526.51,279.79,556a18,18,0,0,1,3.78,10.57,244.77,244.77,0,0,1,25.7-9.82c12.09-3.78,20.41-5.29,24.19-4.16L324,556.36c21.54.38,38.92-2.64,52.15-9.82,13.23-6.81,20.78-16.63,22.67-29.86,1.89-13.6-2.64-29.48-14.36-48-12.09-20-31.74-41.19-58.57-64.25a70.41,70.41,0,0,1-24.56,24.95,82.21,82.21,0,0,1-34,12.46c-8.31,13.61-15.49,22.68-20.78,26.84l20,4.16C264.3,464.91,264.3,457.73,267.32,452.06Z"/><path class="cls-1" d="M277.9,446.77c-4.16.75-6.8,3.4-7.93,8.69-1.51,5.67-1.13,12.09,1.13,18.9a135.48,135.48,0,0,1,15.12,4.91l15.12,5.67,1.51-.38c-3.4-13.6-7.56-23.43-12.85-29.86C285.84,449,281.68,446.39,277.9,446.77Z"/><path class="cls-2" d="M252.58,526.88c2.27,8.32,3.78,14,5.3,17.39,9.44,1.89,15.86,4.16,18.51,7.56a46.83,46.83,0,0,0,.38-14.74Z"/><path class="cls-3" d="M259.39,549.18l3.78,9.45c-3.4,11-11,17-22.68,18.52s-21.92-1.52-31.74-8.7l-11-18.51a22.77,22.77,0,0,0-8.32,13.22,20,20,0,0,0,3.4,14.36c6.81,11.34,19.65,17.77,38.17,19.27a50.28,50.28,0,0,0,28.35-4.9A35.61,35.61,0,0,0,276,577.15c3-6.43,3.4-12.1.76-17.39S268.46,550.69,259.39,549.18Z"/><path class="cls-3" d="M283.57,571.1c-4.16,11.34-11.71,20-22.29,24.94-9.83,4.92-20.79,6.42-32.5,4.92a59.41,59.41,0,0,1-29.86-11c-9.07-6.43-13.6-14-14.36-22.68-4.16,3.4-16.25,9.45-36.28,17.76-21.92,9.45-36.28,16.25-43.46,20.41-28.72,18.89-41.57,42-39.3,69.16a57.55,57.55,0,0,0,10.2,28.72A63.38,63.38,0,0,0,98.4,724.16c30.61,17,61.6,23.05,92.58,17.75q40.82-6.79,71.43-37.41c19.27-19.65,31-41.57,35.52-66.13C302.85,612.67,297.56,590,283.57,571.1Zm-103.17,34c22.68,4.91,41.95,13.23,57.82,24.57-34.76-17.77-67.64-26.84-98.25-26.46C146.39,599.82,160,600.57,180.4,605.11Z"/><path d="M238.22,629.68c-15.87-11.34-35.14-19.66-57.82-24.57-20.4-4.54-34-5.29-40.43-1.89C170.58,602.84,203.46,611.91,238.22,629.68Z"/><path class="cls-1" d="M164.53,130.08v2.65c.38,0,.76-.76.76-2.27Z"/><path class="cls-1" d="M197.79,142.17l.75-.37-.38-2.65Z"/><path class="cls-1" d="M225.75,187.52c-1.89-8.69-3.78-21.54-5.29-38.17-.75-12.09-3.4-20.78-6.8-26.07,2.27,3.78,4.16,13.23,5.29,28.72C220.46,168.25,222.73,180,225.75,187.52Z"/><path class="cls-1" d="M83.66,277.84l-3.78-11c-2.27,4.16-4.54,8.32-7.56,11.72Z"/><path class="cls-1" d="M183.05,430.9a59.5,59.5,0,0,0,28,1.89c9.45-2.27,16.63-6.81,21.17-14.74L191,416.16c-17.38-3.78-29.09-10.21-35.14-19.66-2.65,7.19-1.13,14,4.91,20.79C166,423.34,173.6,427.87,183.05,430.9Z"/><path class="cls-1" d="M220.84,433.17c-1.51,4.53-.38,10.95,3.4,19.64Z"/><path class="cls-1" d="M144.5,387.44h-6.42c-9.07,10.2-21.17,14-35.53,10.95-9.82-1.89-20.4-6.79-31.74-15.11,1.51,9.44,5.67,16.63,13.23,21.54,6.42,4.53,14,6.42,23.43,6.42,8.69-.37,16.25-2.26,23.43-6.8A28.37,28.37,0,0,0,144.5,387.44Z"/><path class="cls-1" d="M123.72,411.62l-1.14.38-19.65,23.05C109.73,430.52,116.54,422.58,123.72,411.62Z"/><path class="cls-1" d="M98.4,457a106.69,106.69,0,0,0,19.27-14.74l-18.52,12.1a95.51,95.51,0,0,1-20.78,10.2C82.9,464.53,89.33,462.26,98.4,457Z"/><path class="cls-2" d="M169.82,452.44,143,445.25c4.91,3.78,11.72,14.75,20.41,32.5,8.69,18.52,16.25,30.62,23,37a83.71,83.71,0,0,1-1.51-38.92A158.55,158.55,0,0,1,169.82,452.44Z"/><path class="cls-3" d="M157.35,508.75a22.67,22.67,0,0,0-15.87-7.56l10.2,18.51c.38,8.32-4.15,15.12-14.36,20.79-10.2,5.29-19.65,5.67-28.72,1.13A55.89,55.89,0,0,1,95.75,525c-2.64,4.16-3.4,9.83-1.89,15.88a33.2,33.2,0,0,0,8.32,16.63c4.91,5.28,10.2,8.69,16.62,9.82,7.18,1.13,14.74-.38,22.68-4.91,8.31-4.54,14.74-10.58,18.52-17.76A31.52,31.52,0,0,0,164.53,525,24.83,24.83,0,0,0,157.35,508.75Z"/><path class="cls-2" d="M157.73,503.08q3.41,2.26,6.8,7.93a36.51,36.51,0,0,1,4.53,9.83,15.56,15.56,0,0,1,5.67,3.4c7.56,3,13.23,4.91,16.25,4.91l-3-8.69-12.85-14C168.69,504.21,163,502.7,157.73,503.08Z"/><path class="cls-3" d="M169.44,526.13c0,10.2-4.15,19.65-11.71,28.72-7.18,7.93-14.74,13.23-22.68,15.11q-14.73,4.54-27.21-2.26c-9.44-5.29-15.87-14-18.51-26.83-6,8.69-15.12,18.89-26.83,30.61L33.4,600.57c-10.21,11.34-17.77,21.55-22.3,30.62-4.91,12.09-6.8,24.18-4.53,36.28,3,19.65,15.49,34,37.41,44.21a106.39,106.39,0,0,0,24.18,7.56L84,720.75C62.12,701.48,53.8,679.56,59.47,655a83.74,83.74,0,0,1,14.36-29.85,102.54,102.54,0,0,1,25.32-22.3,172.1,172.1,0,0,0-50.26,2.27c13.61-7.55,31.37-9.44,53.66-4.91l40.06-17.38c22.3-9.45,36.66-16.63,43.84-21.55l2.27-5.28C186.07,546.16,179.65,536.33,169.44,526.13Z"/><path class="cls-1" d="M217.06,487.58a41.61,41.61,0,0,0,15.49-5.29c4.54-2.65,7.94-5.67,9.45-8.69a41.08,41.08,0,0,1-26.45,12.85c-11.72,1.51-20.79-.76-26.83-7.18C194,487.2,203.46,490.23,217.06,487.58Z"/><path class="cls-1" d="M243.89,496.65a83,83,0,0,0,4.16,21.16C247.29,509.5,246.16,502.32,243.89,496.65Z"/><path class="cls-1" d="M137.32,495.14c-2.27-7.94-6.8-17.76-12.85-30.23A123.5,123.5,0,0,0,137.32,495.14Z"/><path class="cls-4" d="M125.23,164.85l-22.68,17.38C92.73,195.46,86.68,210.57,84,228a102.22,102.22,0,0,0,3.4,50.26l7.56,3.4c4.91,1.89,10.58,5.67,16.25,11.72,4.15,3.78,6,7.18,5.66,9.45C102.55,287.67,88.19,280.87,74.59,282,86.3,305.05,89,322.06,82.9,333a17.58,17.58,0,0,1-11.71,8.31,28.5,28.5,0,0,1-16.63-1.51c7.94,9.83,21.16,19.65,40.06,29.1,22.29,11.34,41.95,15.87,59.33,13.6,3-9.07,12.47-18.51,28.72-27.21l44.22-20.4-3.41-20.41c-8.31-3-21.91-1.89-40.81,3.78a360.83,360.83,0,0,0,20-38.17c10.2-23.43,13.6-43.46,11-59.71a260.93,260.93,0,0,1-15.12-76.34c-6.8-.37-17,3.78-29.85,12.47l-13.23,8.32c-3.78,2.64-6.8,3.4-8.31,3-2.27-1.13-3.4-4.53-3-11.34l1.51-11.71A114.8,114.8,0,0,1,125.23,164.85Z"/><path class="cls-1" d="M166,144.82l20-18.52C178.89,129.7,172.09,135.75,166,144.82Z"/><path class="cls-1" d="M78,232.49c-3.78-4.91-9.07-6.42-15.49-4.53-5.29,1.51-9.45,4.16-11.72,7.94L10.35,288.05c-3,4.53-4.16,10.58-3,17.76,1.14,6.8,3.4,12.47,7.18,17,4.54,6.05,11.34,12.85,19.28,20L76.1,380.63a66.8,66.8,0,0,0,24.57,12.85l18.13,1.13c6.43-1.13,11.72-3.39,15.88-7.17-21.17-2.27-41.2-10.21-60.09-23.43-15.49-11-24.56-20-28-28Q26.22,319.6,21.68,300.9c-3-10.59-1.51-19.66,4.16-28q7.36-11.34,20.41-11.34,13.59-.55,23.8,13.61a60.48,60.48,0,0,0,8.32-14.74C77.61,247.61,77.23,238.16,78,232.49Z"/><path class="cls-1" d="M78.75,226.83A95.38,95.38,0,0,1,88.19,197c-7.18-.76-15.11.76-23.43,4.54-8.31,3.4-15.49,8.69-22.29,15.11-7.18,6.8-12.47,13.61-15.12,21.16-3.4,8.32-3.78,15.88-1.51,22.68l21.54-28C58.72,221.54,68.92,219.65,78.75,226.83Z"/><path d="M145.64,299.76c3.4-4.16,2.64-12.09-2.65-23.05-6.05-12.47-12.85-17-20.79-14.36-1.51.75-1.88,1.89-.75,3.4-1.13,12.09,0,23.05,4.16,32.5C130.14,309.59,136.94,310,145.64,299.76Zm-6.81-22.3c4.16,7.56,6.81,13.23,6.81,16.63a23.54,23.54,0,0,1-7.56,9.07c.38-5.29-.76-10.2-3-15.49q-4-8.51-10.2-7.94c0-7.56,0-12.47.76-14.74C129.38,264.62,133.92,268.77,138.83,277.46Z"/><path class="cls-1" d="M145.64,294.09c0-3.4-2.65-9.07-6.81-16.63-4.91-8.69-9.45-12.84-13.22-12.47-.76,2.27-.76,7.18-.76,14.74q6.24-.57,10.2,7.94c2.27,5.29,3.41,10.2,3,15.49A23.54,23.54,0,0,0,145.64,294.09Z"/><path d="M115,211.33c.38-.76.38-.76-.37-1.13-1.52,2.26-4.92,5.67-9.83,9.82a34.72,34.72,0,0,0-7.93,9.83l-3,11.71c-1.13,4.54-1.13,6.81-.38,7.18.38,0,1.14-2.64,2.27-7.55,1.51-6.05,3-10.59,4.92-13.61l11.71-11,.38,15.12c.37,6,.75,9.07,1.51,9.07.75.38.75-3,.75-9.45l-.37-18.52Z"/><path d="M100.67,252.9l-6.43,4.54a7.88,7.88,0,0,0-2.65,5.66L93.11,265l1.13,6.43L96.89,279l-1.14-.76.38,1.13,10.58,3.78,1.13,1.14h.76a25.25,25.25,0,0,0,3.78-11.34l-.38-13.6C110.87,252.52,107.09,250.25,100.67,252.9Zm-4.16,14-.38-6.8c3.78-3.78,7.56-4.53,11.71-3.4.76,1.51,1.52,4.54,1.52,9.07l-.76,11c-2.27-6-4.91-9.45-7.93-11C98.78,265,97.26,265.37,96.51,266.88Z"/><path class="cls-1" d="M96.13,260.08l.38,6.8c.75-1.51,2.27-1.89,4.16-1.13,3,1.51,5.66,4.91,7.93,11l.76-11c0-4.53-.76-7.56-1.52-9.07C103.69,255.55,99.91,256.3,96.13,260.08Z"/><path d="M154,223.8l-1.51-13.23-1.14,6.81c-6.8-.38-12.84,4.91-18.51,15.49a88.11,88.11,0,0,0-4.54,11.34c-.75,3.4-1.13,5.29,0,5.67.38,0,1.13-1.51,2.27-4.54l4.91-10.58q7.38-15.3,15.87-14.74,1.14,20.41,5.67,29.48l-3,15.87c-1.13,6.05-1.51,9.45-.76,9.45.76.38,1.89-2.65,3.4-8.69l3.41-17C157,242.7,155.08,234,154,223.8Z"/></svg>